<svg xmlns="http://www.w3.org/2000/svg" viewBox="0 0 32 32" fill="none">
  <!-- Background circle with warm African-inspired colors -->
  <circle cx="16" cy="16" r="16" fill="#D97706"/>
  
  <!-- Book/Education symbol -->
  <path d="M8 12c0-1.1.9-2 2-2h4c.6 0 1.1.3 1.4.7.3-.4.8-.7 1.4-.7h4c1.1 0 2 .9 2 2v8c0 .6-.4 1-1 1h-4c-.6 0-1.1.3-1.4.7-.3-.4-.8-.7-1.4-.7h-4c-.6 0-1-.4-1-1v-8z" fill="white"/>
  
  <!-- Book pages -->
  <line x1="16" y1="10" x2="16" y2="21" stroke="#D97706" stroke-width="1"/>
  <line x1="10" y1="14" x2="14" y2="14" stroke="#D97706" stroke-width="0.5"/>
  <line x1="10" y1="16" x2="14" y2="16" stroke="#D97706" stroke-width="0.5"/>
  <line x1="18" y1="14" x2="22" y2="14" stroke="#D97706" stroke-width="0.5"/>
  <line x1="18" y1="16" x2="22" y2="16" stroke="#D97706" stroke-width="0.5"/>
  
  <!-- Small star representing achievement/victory -->
  <path d="M16 6l1.5 3h3l-2.5 2 1 3-3-2-3 2 1-3-2.5-2h3z" fill="#FEF3C7" stroke="white" stroke-width="0.5"/>
</svg>